<?xml version="1.0" encoding="UTF-8"?>
<svg xmlns="http://www.w3.org/2000/svg" width="32" height="32" viewBox="0 0 32 32">
  <circle cx="16" cy="16" r="5" fill="none" stroke="#9E71D6" stroke-width="2.0"/>
  <circle cx="16" cy="16" r="2" fill="#B581F6" opacity="0.85"/>
  <rect x="15" y="5" width="2" height="5" rx="1" fill="#9E71D6"/>
  <rect x="15" y="22" width="2" height="5" rx="1" fill="#9E71D6"/>
  <rect x="5" y="15" width="5" height="2" rx="1" fill="#9E71D6"/>
  <rect x="22" y="15" width="5" height="2" rx="1" fill="#9E71D6"/>
  <rect x="7" y="7" width="5" height="2" rx="1" fill="#9E71D6" transform="rotate(45 9.5 8)"/>
  <rect x="20" y="7" width="5" height="2" rx="1" fill="#9E71D6" transform="rotate(-45 22.5 8)"/>
  <rect x="7" y="23" width="5" height="2" rx="1" fill="#9E71D6" transform="rotate(-45 9.5 24)"/>
  <rect x="20" y="23" width="5" height="2" rx="1" fill="#9E71D6" transform="rotate(45 22.5 24)"/>
</svg>
